<?xml version="1.0" encoding="utf-8"?>
<!-- Generator: Adobe Illustrator 18.1.1, SVG Export Plug-In . SVG Version: 6.00 Build 0)  -->
<svg version="1.1" xmlns="http://www.w3.org/2000/svg" xmlns:xlink="http://www.w3.org/1999/xlink" x="0px" y="0px"
	 viewBox="0 0 1280 800" enable-background="new 0 0 1280 800" xml:space="preserve">
<g id="Background" display="none">
	<defs>
		<rect id="SVGID_1_" width="1280" height="800"/>
	</defs>
	<clipPath id="SVGID_2_" display="inline">
		<use xlink:href="#SVGID_1_"  overflow="visible"/>
	</clipPath>
	
		<rect x="-112.8" y="-67.1" display="inline" clip-path="url(#SVGID_2_)" fill="#1B1464" stroke="#000000" stroke-miterlimit="10" width="1392.8" height="867.1"/>
	<g id="Layer_6" display="inline" clip-path="url(#SVGID_2_)">
	</g>
	<g display="inline" clip-path="url(#SVGID_2_)">
		
			<ellipse transform="matrix(0.9173 -0.3981 0.3981 0.9173 -213.2261 219.5887)" fill="none" stroke="#FFFFFF" stroke-width="4" stroke-miterlimit="10" cx="422.2" cy="623.2" rx="193.6" ry="109.2"/>
		
			<ellipse transform="matrix(0.9173 -0.3981 0.3981 0.9173 -207.4984 227.3214)" fill="none" stroke="#FFFFFF" stroke-width="4" stroke-miterlimit="10" cx="443.6" cy="613.3" rx="167.8" ry="94.6"/>
		
			<ellipse transform="matrix(0.9173 -0.3981 0.3981 0.9173 -198.0921 240.5284)" fill="none" stroke="#FFFFFF" stroke-width="4" stroke-miterlimit="10" cx="480.1" cy="597.3" rx="126.2" ry="71.2"/>
	</g>
	<g display="inline" clip-path="url(#SVGID_2_)">
		<g>
			<path fill="#FFFFFF" d="M428.1,159.2c10.3,13.1,25.7,20.9,42.3,21.5c19.3,0.7,38.1-5.8,57.5-5.5c34,0.5,68.2,14.9,83.5,47
				c9.3,19.5,11.2,41.6,11.7,62.8c0.1,1.9,3.1,1.9,3,0c-0.9-34.4-6.7-71.8-36.2-93.7c-13-9.7-28.8-15.2-44.8-17.6
				c-17.4-2.6-34.2-0.9-51.4,1.9c-12.3,2-24.9,3.6-37.1-0.1c-10.6-3.2-19.7-9.8-26.5-18.4C429.1,155.6,426.9,157.7,428.1,159.2
				L428.1,159.2z"/>
		</g>
	</g>
	<g display="inline" clip-path="url(#SVGID_2_)">
		<g>
			<path fill="#FFFFFF" d="M655.6,126.2c-4-31.5,17.6-60.4,46.6-70.8c28.6-10.2,70.9-6.7,89.9,19.7c9.7,13.4,13.6,30.1,17.2,46
				c0.4,1.9,3.3,1.1,2.9-0.8c-3.5-15.5-7.3-31.5-16.2-44.9C786.5,61.3,772,53.7,755.7,50c-31.9-7.3-68.3,0.5-89,27.4
				c-10.7,13.8-16.3,31.4-14.1,48.8C652.9,128.1,655.9,128.1,655.6,126.2L655.6,126.2z"/>
		</g>
	</g>
	<g display="inline" clip-path="url(#SVGID_2_)">
		<g>
			<path fill="#FFFFFF" d="M1025.9,286.1c18-0.2,37.4-0.7,54.8-5.8c13.8-4,23.5-13.3,31.3-25c8.1-12.2,14.3-25.9,24.9-36.2
				c12.3-11.9,29.6-17,46.3-18.9c21.7-2.4,43.8,0,64.6,6.6c1.8,0.6,2.6-2.3,0.8-2.9c-17.7-5.6-36.2-8.2-54.7-7.5
				c-15.9,0.6-32.3,3.4-46.4,11.2c-12.8,7.1-21.2,18.5-28.7,30.8c-7.5,12.5-14.7,26.3-27.6,34.2c-9.4,5.7-20.6,7.2-31.4,8.4
				c-11.3,1.3-22.7,2-34.1,2.1C1024,283.1,1023.9,286.1,1025.9,286.1L1025.9,286.1z"/>
		</g>
	</g>
	<g display="inline" clip-path="url(#SVGID_2_)">
		<g>
			<path fill="#FFFFFF" d="M862.8,585.6c27.3,3.6,50.6,21.7,64,45.3c14.5,25.5,15.5,56.2,6.7,83.8c-5.3,16.6-14,32-25.1,45.3
				c-1.2,1.5,0.9,3.6,2.1,2.1c20.3-24.3,33-55.7,31.6-87.6c-1.2-28.8-14.8-56.3-37.6-74.2c-12.2-9.5-26.4-15.8-41.7-17.8
				C860.9,582.4,861,585.4,862.8,585.6L862.8,585.6z"/>
		</g>
	</g>
</g>
<g id="Layer_5">
</g>
<g id="Layer_2">
	<g>
		<g>
			<path fill="#E5E5E6" stroke="#000000" stroke-width="4" stroke-miterlimit="10" d="M259.9,477.1c-3.8-3.1-7.5-6.2-11.3-9.4
				c0.3-1.3,1.2-3,0.7-3.7c-11.3-16.7-22.8-33.3-34.5-49.7c-0.8-1.1-4.2-0.4-6.5-0.5c-4.6-13-8.3-26.4-14-38.9
				c-17.9-39.5-28-80.7-30.4-123.9c-0.8-14.1,0.1-28.2,0.2-42.3c2,0,4.1,0,6.1,0c0.2,4.3-0.7,9.1,0.9,12.8
				c9.2,21.5,19.2,42.7,28.5,64.2c23,53.5,45.7,107.2,68.8,160.6c2.3,5.4,9.2,14.2,10.8,13.6c27.7-10.8,55-22.8,82.2-35.1
				c2.2-1,4.1-7.5,3-10.2c-5.6-13.9-12.4-27.3-18.3-41.1c-17.3-40.4-33.5-81.3-51.9-121.2c-12.3-26.8-27.6-52.3-41.5-78.4
				c0.6-2.2,1.2-4.5,1.8-6.7c15.4,15.2,32.8,28.9,45.8,46c18,23.6,33.9,49,48.7,74.9c9.6,16.7,15.6,35.5,23.1,53.4
				c-0.5,1.7-1.8,3.6-1.5,5.1c2.9,12.9,5.6,25.8,9.3,38.4c2.5,8.2,6.7,15.8,10.1,23.7c-1.3,4.6-2.6,9.2-3.9,13.8
				c-1.7,0.3-3.5,0.4-5,1.1c-27.9,11.9-55.8,23.8-83.6,36C284.9,465,272.5,471.2,259.9,477.1z"/>
			<path fill="#FAB247" stroke="#000000" stroke-width="4" stroke-miterlimit="10" d="M370.4,445.4c5.8,21,12,41.9,17.2,63
				c1.2,4.9,0.1,11.1-2,15.8c-0.9,1.9-8,2.5-11.2,1.2c-4.5-1.9-8.1-6.2-12.1-9.4c-1.5-1.2-2.9-2.4-4.4-3.5c-0.7,1.7-1.2,3.7-2.3,5.1
				c-1,1.4-2.5,2.4-4,3.4c-2.6,1.8-6.8,2.9-7.6,5.2c-2.3,7.1-3.3,14.6-4.9,21.9c-7-4.6-16.3-7.6-20.6-14
				c-11.4-17.1-20.7-35.6-30.9-53.6C315.2,468.7,342.8,457.1,370.4,445.4z M377.7,475c-4.4-0.9-7.5-2.6-9.6-1.7
				c-20.1,8.3-40,17-59.9,25.9c-1.6,0.7-3.5,4.6-3,5.3c8.5,11,17.3,21.7,26.3,32.3c0.3,0.4,4.4-1.2,4.4-1.8c0-7.1-0.4-14.3-0.8-21.4
				c-0.2-3-0.8-6-1.3-9c2.6,0.6,5.4,0.7,7.9,1.7c2.7,1.1,5,2.9,7.5,4.4c0.5-3,1-5.9,1.5-8.9c0.4-2.7,0.9-5.4,1.3-8.1
				c1.8,2.1,3.6,4.4,5.5,6.4c4.9,5.4,9.7,11,15.1,15.9c1,0.9,7.1-1.5,7.1-2.3C379.4,501.4,378.5,489,377.7,475z"/>
			<path fill="#E62925" stroke="#000000" stroke-width="4" stroke-miterlimit="10" d="M165.9,203.8c4.8-25.5,9.6-51.1,14.3-76.6
				c7.4,1.5,16,1.1,22.1,4.8c17.3,10.5,33.5,22.7,50.2,34.2c-3.2,2.3-6.1,5.4-9.6,6.8C217.3,183.5,191.6,193.6,165.9,203.8z"/>
			<path fill="#E62925" stroke="#000000" stroke-width="4" stroke-miterlimit="10" d="M390.1,408.6c-3.4-7.9-7.6-15.6-10.1-23.7
				c-3.8-12.6-6.5-25.5-9.3-38.4c-0.3-1.5,1-3.4,1.5-5.1c12.2,4.2,25.2,6.9,36.2,13.2c7.2,4.1,11.8,13.1,17,20.4
				c3.9,5.5,6.3,12.2,10.4,17.5c11.6,15.3-0.8,13.1-9.6,13.7C414.1,407,402.1,407.8,390.1,408.6z"/>
			<path fill="#E62925" stroke="#000000" stroke-width="4" stroke-miterlimit="10" d="M208.4,413.7c2.2,0.1,5.7-0.6,6.5,0.5
				c11.7,16.4,23.2,33.1,34.5,49.7c0.5,0.7-0.4,2.5-0.7,3.7c-11.5,11-23,22-34.5,32.9c-1.8,1.7-3.6,3.3-5.4,4.9
				c-1.3-2.4-3.1-4.7-3.8-7.3c-3-11.3-8.7-22.9-7.8-34C198.4,447.2,204.4,430.6,208.4,413.7z"/>
			<path fill="#363634" stroke="#000000" stroke-width="4" stroke-miterlimit="10" d="M370.4,445.4c-27.6,11.7-55.1,23.3-82.7,35
				c-9.9,4.3-20.2,12.1-27.7-3.3c12.5-5.9,24.9-12.1,37.6-17.7c27.8-12.2,55.7-24,83.6-36c1.5-0.7,3.3-0.7,5-1.1
				C390.8,436.8,380.2,440.9,370.4,445.4z"/>
			<path fill="#901919" stroke="#000000" stroke-width="4" stroke-miterlimit="10" d="M165.9,203.8c25.7-10.2,51.4-20.3,77-30.8
				c3.5-1.4,6.4-4.5,9.6-6.8c0.7,0.3,1.4,0.6,2.1,0.9c-0.6,2.2-1.2,4.5-1.8,6.7c-27.5,11.6-55,23.2-82.4,34.8c-2,0-4.1,0-6.1,0
				C164.7,207,165.3,205.4,165.9,203.8z"/>
			<g id="XMLID_1_">
				<g>
					<path fill="#DBDDDE" d="M171.2,221.4c-1.6-3.7-0.7-8.5-0.9-12.8c27.5-11.6,54.9-23.2,82.4-34.8c13.9,26.1,29.2,51.6,41.5,78.4
						c18.4,39.9,34.6,80.8,51.9,121.2c5.9,13.8,12.8,27.2,18.3,41.1c1.1,2.7-0.8,9.2-3,10.2c-27.1,12.3-54.4,24.3-82.1,35.1
						c-1.7,0.6-8.5-8.2-10.8-13.6c-23.2-53.4-45.8-107.1-68.8-160.6C190.4,264.1,180.4,243,171.2,221.4z"/>
				</g>
				<g>
					<path fill="none" stroke="#000000" stroke-width="4" stroke-miterlimit="10" d="M170.3,208.7c27.5-11.6,54.9-23.2,82.4-34.8
						c13.9,26.1,29.2,51.6,41.5,78.4c18.4,39.9,34.6,80.8,51.9,121.2c5.9,13.8,12.8,27.2,18.3,41.1c1.1,2.7-0.8,9.2-3,10.2
						c-27.1,12.3-54.4,24.3-82.1,35.1c-1.7,0.6-8.5-8.2-10.8-13.6c-23.2-53.4-45.8-107.1-68.8-160.6c-9.3-21.5-19.3-42.7-28.5-64.2
						C169.6,217.7,170.5,212.9,170.3,208.7z"/>
				</g>
			</g>
			<path fill="#D1D3D4" stroke="#000000" stroke-width="4" stroke-miterlimit="10" d="M173,265.9c1.6,1.7,3.8,3.1,4.7,5.1
				c13.4,30.6,26.6,61.2,39.9,91.8c11.5,26.6,23.3,53.1,34.4,79.8c2.9,7,4,14.8,5.9,22.2"/>
			<path fill="#DBDDDE" stroke="#000000" stroke-width="4" stroke-miterlimit="10" d="M257.8,464.8c-1.9-7.4-3-15.2-5.9-22.2
				c-11.1-26.7-22.9-53.2-34.4-79.8c-13.3-30.6-26.5-61.2-39.9-91.8c-0.9-2-3.1-3.4-4.7-5.1c-0.6-5-1.2-10-1.7-15.1
				c-0.1-0.6,0.9-1.4,1.4-2.1c1,0.9,2.4,1.7,2.9,2.8c23.3,54.5,46.6,109,69.8,163.5c6.5,15.3,13.3,30.5,19.7,45.8
				c0.7,1.7-0.2,4-0.4,6.1C262.4,466.3,260.1,465.5,257.8,464.8z"/>
			<path fill="#DBDDDE" stroke="#000000" stroke-width="4" stroke-miterlimit="10" d="M376,398.1c0.1,0.3,0.3,0.7,0.4,1
				c0.2,0.4,0.3,0.8,0.5,1.2l0,0c-0.1,1.8-0.2,3.6-0.3,5.4c0.5,3.8,1,7.5,1.4,11.3c-2.3-3-5.4-5.6-6.8-9
				c-15.1-34.5-30.1-69.1-44.9-103.7c-12.4-29.1-24.5-58.3-36.7-87.5c-0.7-1.6-0.5-3.5-0.7-5.3c1.3,1.1,2.7,2.1,3.8,3.4
				c2.8,3.3,5.5,6.6,8.2,10c0.3,2.8,0,5.8,1.1,8.3c21.1,49.6,42.2,99.1,63.6,148.5C368.2,387.5,372.5,392.6,376,398.1z"/>
			<path fill="#D1D3D4" stroke="#000000" stroke-width="4" stroke-miterlimit="10" d="M376.7,405.6c0.1-1.8,0.2-3.6,0.3-5.4
				C376.9,402,376.8,403.8,376.7,405.6z"/>
			<path fill="#D1D3D4" stroke="#000000" stroke-width="4" stroke-miterlimit="10" d="M376.9,400.2c-0.2-0.4-0.3-0.8-0.5-1.2
				c0.3,0.2,0.5,0.4,0.7,0.7C377.2,399.8,377,400.1,376.9,400.2z"/>
			<path fill="#F2762B" stroke="#000000" stroke-width="4" stroke-miterlimit="10" d="M377.7,475c0.8,14,1.7,26.4,2,38.8
				c0,0.8-6.1,3.1-7.1,2.3c-5.4-4.9-10.2-10.5-15.1-15.9c-1.9-2.1-3.6-4.3-5.5-6.4c-0.4,2.7-0.9,5.4-1.3,8.1c-0.5,3-1,5.9-1.5,8.9
				c-2.5-1.5-4.8-3.3-7.5-4.4c-2.5-1-5.3-1.2-7.9-1.7c0.4,3,1.1,6,1.3,9c0.5,7.1,0.8,14.3,0.8,21.4c0,0.7-4.1,2.3-4.4,1.8
				c-9-10.6-17.8-21.3-26.3-32.3c-0.5-0.7,1.4-4.6,3-5.3c19.9-8.9,39.8-17.6,59.9-25.9C370.2,472.4,373.3,474.1,377.7,475z"/>
		</g>
		<circle fill="#D1D3D4" stroke="#000000" stroke-width="4" stroke-miterlimit="10" cx="261.2" cy="294.2" r="27.8"/>
		<g id="XMLID_2_">
			<g>
				<path fill="#29ABE2" d="M261.2,280.7c8.4,0,15.2,6.8,15.2,15.2c0,8.4-6.8,15.2-15.2,15.2c-8.4,0-15.2-6.8-15.2-15.2
					C246,287.5,252.8,280.7,261.2,280.7z"/>
			</g>
			<g>
				<path fill="none" stroke="#000000" stroke-width="4" stroke-miterlimit="10" d="M276.3,295.8c0,8.4-6.8,15.2-15.2,15.2
					c-8.4,0-15.2-6.8-15.2-15.2c0-8.4,6.8-15.2,15.2-15.2C269.5,280.7,276.3,287.5,276.3,295.8z"/>
			</g>
		</g>
	</g>
</g>
<g id="Layer_3">
	<polygon fill="#0071BC" stroke="#000000" stroke-width="4" stroke-miterlimit="10" points="471.2,186.4 441.3,181.6 420.4,203.4 
		415.8,173.5 388.6,160.3 415.6,146.7 419.7,116.7 441,138.2 470.8,132.8 456.9,159.8 	"/>
	<polygon fill="#662D91" stroke="#000000" stroke-width="4" stroke-miterlimit="10" points="807.3,162.2 790,134.1 757,132.4 
		778.4,107.3 769.7,75.4 800.3,87.9 827.9,69.9 825.4,102.8 851.1,123.5 819.1,131.3 	"/>
	<polygon fill="#FFFF00" stroke="#000000" stroke-width="4" stroke-miterlimit="10" points="586.1,529.1 551.8,523.5 527.7,548.6 
		522.5,514.3 491.2,499.1 522.2,483.5 526.9,449 551.4,473.7 585.6,467.6 569.7,498.5 	"/>
	<polygon fill="#F7931E" stroke="#000000" stroke-width="4" stroke-miterlimit="10" points="1107,339.6 1057.7,331.6 1023.1,367.6 
		1015.6,318.3 970.6,296.5 1015.2,274.1 1022,224.6 1057.1,260.1 1106.3,251.3 1083.4,295.6 	"/>
	<polygon fill="#22B573" stroke="#000000" stroke-width="4" stroke-miterlimit="10" points="876.8,643.2 859.8,604.4 818.2,596.4 
		849.9,568.3 844.7,526.2 881.2,547.7 919.6,529.7 910.5,571.1 939.4,602 897.3,606.1 	"/>
</g>
<g id="_x34_04">
	<text id="_x34_04_Not_Found" transform="matrix(1 0 0 1 662.5244 303)"><tspan x="0" y="0" fill="#FCEE21" stroke="#000000" stroke-width="3" stroke-linejoin="round" stroke-miterlimit="10" font-family="'ShowcardGothic-Reg'" font-size="90" letter-spacing="9">404</tspan><tspan x="-163.1" y="85" fill="#FCEE21" stroke="#000000" stroke-width="3" stroke-linejoin="round" stroke-miterlimit="10" font-family="'ShowcardGothic-Reg'" font-size="80" letter-spacing="8">NOT FOUND</tspan></text>
</g>
</svg>
